<?xml version="1.0" standalone="no"?>
<!DOCTYPE svg PUBLIC "-//W3C//DTD SVG 20010904//EN"
 "http://www.w3.org/TR/2001/REC-SVG-20010904/DTD/svg10.dtd">
<svg version="1.0" xmlns="http://www.w3.org/2000/svg"
 width="512.000000pt" height="512.000000pt" viewBox="0 0 512.000000 512.000000"
 preserveAspectRatio="xMidYMid meet">
<metadata>
Created by potrace 1.11, written by Peter Selinger 2001-2013
</metadata>
<g transform="translate(0.000000,512.000000) scale(0.100000,-0.100000)"
fill="#000000" stroke="none">
<path d="M1880 4660 c-24 -34 -21 -43 37 -129 24 -35 59 -96 78 -136 52 -108
51 -152 0 -380 -9 -38 -18 -79 -20 -90 -3 -11 -7 -29 -9 -40 -23 -102 -37
-170 -41 -197 -3 -18 -8 -40 -10 -48 -2 -8 -7 -35 -10 -60 -4 -24 -8 -47 -10
-50 -2 -4 -7 -29 -11 -56 -3 -27 -8 -51 -10 -53 -7 -7 -237 -5 -309 3 -199 22
-326 76 -432 184 -26 27 -39 33 -65 30 -28 -3 -33 -7 -34 -30 -2 -65 64 -179
149 -258 60 -55 169 -112 207 -109 3 0 16 -4 30 -9 14 -6 55 -13 90 -17 36 -4
74 -9 85 -11 11 -3 70 -7 130 -10 61 -3 110 -7 111 -7 0 -1 -7 -49 -17 -107
-10 -58 -21 -125 -24 -150 -4 -25 -8 -52 -10 -60 -3 -8 -7 -33 -10 -55 -3 -22
-10 -65 -15 -95 -10 -58 -18 -115 -26 -190 -2 -25 -6 -56 -9 -70 -2 -14 -6
-47 -10 -75 -3 -27 -8 -66 -10 -85 -2 -19 -7 -59 -11 -89 -3 -30 -7 -61 -8
-69 -2 -8 -50 -40 -107 -70 -185 -96 -519 -302 -567 -349 -26 -26 -258 -134
-292 -136 -61 -5 -140 27 -209 86 -60 51 -113 58 -126 17 -20 -63 305 -500
371 -500 17 0 206 139 236 175 18 20 18 20 54 -20 20 -22 78 -103 129 -180 93
-142 117 -181 188 -315 22 -41 52 -90 65 -108 31 -40 98 -81 132 -80 169 6
255 140 259 404 3 138 8 244 16 314 4 30 8 78 10 105 9 116 17 198 30 295 3
19 8 62 11 94 3 33 8 67 9 75 2 9 4 25 4 37 1 16 23 31 99 69 200 98 459 194
595 221 10 2 26 5 35 8 9 3 35 8 57 12 22 3 42 7 45 9 17 11 169 20 315 19
193 0 308 -17 450 -65 327 -112 505 -352 488 -660 -19 -344 -223 -570 -583
-645 -92 -19 -319 -25 -443 -12 -72 8 -245 45 -357 76 -85 23 -104 23 -108 -5
-2 -17 7 -29 40 -49 97 -62 353 -172 439 -189 8 -2 44 -10 80 -19 179 -45 430
-54 569 -21 259 62 469 200 592 391 59 92 85 151 109 246 70 279 -27 580 -254
791 -119 111 -307 218 -482 275 -169 55 -351 80 -557 76 -201 -4 -254 -11
-433 -50 -38 -9 -77 -17 -86 -19 -44 -9 -251 -73 -304 -94 -107 -43 -261 -101
-266 -101 -4 0 -3 19 2 43 6 35 23 140 44 277 19 123 55 324 81 446 20 95 22
106 23 129 2 33 15 45 54 50 20 3 54 7 75 10 31 4 104 16 122 20 3 1 25 5 50
9 59 11 67 12 120 25 25 5 59 12 77 16 18 3 45 10 60 16 15 6 28 10 28 9 0 -1
22 5 49 12 31 8 64 27 91 53 67 62 71 114 14 179 -66 76 -209 90 -399 41 -8
-2 -72 -24 -142 -48 -71 -25 -128 -41 -128 -36 0 4 11 54 26 111 14 57 27 111
29 121 2 10 6 26 9 35 3 9 7 28 10 42 16 82 52 203 77 255 16 34 57 91 94 130
89 95 99 115 81 159 -18 44 -205 169 -393 263 -155 77 -185 83 -213 43z m-224
-2808 c-3 -5 -8 -42 -11 -83 -12 -145 -14 -175 -20 -239 -3 -36 -8 -87 -10
-115 -19 -238 -23 -266 -44 -295 -22 -31 -68 -37 -113 -14 -51 26 -157 114
-276 230 l-107 104 26 23 c44 38 135 111 165 132 15 11 32 25 38 31 17 16 311
220 327 227 21 8 31 8 25 -1z"/>
<path d="M3765 3702 c-79 -6 -127 -34 -109 -63 8 -13 57 -37 85 -42 13 -3 44
-11 69 -18 25 -7 50 -13 55 -14 32 -7 154 -73 205 -112 110 -82 137 -171 85
-281 -32 -68 -91 -124 -175 -167 -123 -62 -91 -116 50 -87 129 27 282 32 334
12 14 -5 26 -8 26 -5 0 2 30 -11 66 -30 89 -47 139 -60 173 -45 96 39 97 256
2 422 -94 164 -288 309 -513 382 -105 35 -263 56 -353 48z"/>
</g>
</svg>
